<svg id="Icons" height="512" viewBox="0 0 60 60" width="512" xmlns="http://www.w3.org/2000/svg"><path d="m52.137 52.77-2.3-.322a1 1 0 0 1 -.77-.545l-1.067-2.079-1.07 2.086a1.013 1.013 0 0 1 -.756.536l-2.311.324 1.647 1.543a1 1 0 0 1 .3.905l-.4 2.226 2.08-1.044a1.132 1.132 0 0 1 1.016 0l2.081 1.051-.4-2.226a1 1 0 0 1 .3-.905z"/><path d="m44.736 10c-.792-2.442-3.795-8-14.736-8s-13.944 5.558-14.736 8h3.021c.715-1.623 3.221-5 11.715-5s11 3.377 11.715 5z"/><path d="m26 30a1 1 0 0 0 1 1h6a1 1 0 0 0 1-1v-1h-8z"/><path d="m9.413 57.444 2.077-1.044a1.132 1.132 0 0 1 1.016 0l2.081 1.051-.4-2.226a1 1 0 0 1 .3-.905l1.647-1.543-2.3-.322a1 1 0 0 1 -.77-.545l-1.064-2.086-1.07 2.086a1.013 1.013 0 0 1 -.756.536l-2.311.324 1.647 1.543a1 1 0 0 1 .3.905z"/><path d="m40.553 45.2-6.771-.988a.936.936 0 0 1 -.172-.041 1.018 1.018 0 0 1 -.587-.513l-3.023-6.151-3.022 6.153a1.022 1.022 0 0 1 -.762.556l-6.769.988 4.906 4.806a1 1 0 0 1 .285.882l-1.157 6.778 5.936-3.135a1.246 1.246 0 0 1 1.17 0l5.932 3.134-1.157-6.778a1 1 0 0 1 .285-.882z"/><path d="m50 43a2 2 0 0 0 2-2v-12.142a3.939 3.939 0 0 1 -1 .142h-15v1a3 3 0 0 1 -3 3h-6a3 3 0 0 1 -3-3v-1h-15a3.939 3.939 0 0 1 -1-.142v12.142a2 2 0 0 0 2 2h10.7l4.711-.687 3.149-6.413a1.6 1.6 0 0 1 2.88 0l3.149 6.41 4.711.69z"/><path d="m34 26a1 1 0 0 0 -1-1h-6a1 1 0 0 0 -1 1v1h8z"/><path d="m51 12h-42a2 2 0 0 0 -2 2v11a2 2 0 0 0 2 2h15v-1a3 3 0 0 1 3-3h6a3 3 0 0 1 3 3v1h15a2 2 0 0 0 2-2v-11a2 2 0 0 0 -2-2z"/></svg>