<svg enable-background="new 0 0 512 512" viewBox="0 0 512 512" xmlns="http://www.w3.org/2000/svg"><g id="_x30_9_Doctor"><g><path d="m309.729 330.419v-181.405c0-72.802-59.238-132.04-132.04-132.04s-132.04 59.238-132.04 132.04v181.406c-19.65 15.529-32.351 39.492-32.351 66.428v64.942c0 17.685 14.378 32.063 32.064 32.063h264.656c17.685 0 32.063-14.378 32.063-32.063v-64.942c0-26.937-12.701-50.9-32.352-66.429zm-215.05-115.601v-65.517c0-3.115 2.54-5.655 5.656-5.655h64.462c12.557 0 25.018-4.218 34.987-11.838l15.337-11.742c.288.479 2.971 23.58 26.169 23.58h13.755c3.115 0 5.655 2.54 5.655 5.655v65.517c0 45.819-37.24 83.059-83.011 83.059s-83.01-37.24-83.01-83.059zm-49.318 269.448c-12.365 0-22.478-10.065-22.478-22.478v-64.942c0-41.361 33.645-75.006 75.007-75.006h21.28l-20.322 46.346c-.863 1.965-.288 4.314 1.438 5.655l17.589 13.947-16.919 9.346c-2.3 1.246-3.163 4.122-1.965 6.422l42.751 80.71zm99.546-14.473-35.227-66.523 19.123-10.544c1.39-.767 2.301-2.205 2.444-3.786.144-1.63-.527-3.163-1.773-4.17l-20.369-16.152 20.513-46.777h15.289zm55.021-130.651c0 12.221-9.969 22.19-22.238 22.19s-22.238-9.969-22.238-22.19v-34.508c15.097 3.738 29.332 3.738 44.477 0-.001 1.007-.001 34.508-.001 34.508zm9.585-17.302h15.289l20.513 46.777-20.369 16.152c-1.246 1.006-1.917 2.54-1.774 4.17.096 1.581 1.055 3.019 2.444 3.786l19.123 10.544-35.227 66.523v-147.952zm122.982 139.949c0 12.413-10.113 22.478-22.478 22.478h-97.341l42.704-80.71c1.246-2.3.384-5.176-1.917-6.422l-16.918-9.346 17.589-13.947c1.725-1.342 2.3-3.691 1.438-5.655l-20.322-46.347h22.238c41.362 0 75.006 33.645 75.006 75.006v64.943z"/><path d="m198.621 192.402c-1.872 1.872-1.872 4.905 0 6.777s4.905 1.872 6.777 0c4.643-4.643 12.211-4.652 16.854 0 1.872 1.872 4.905 1.872 6.777 0s1.872-4.905 0-6.777c-8.382-8.378-22.016-8.388-30.408 0z"/><path d="m156.754 199.179c1.872-1.872 1.872-4.905 0-6.777-8.383-8.378-22.017-8.387-30.409 0-1.872 1.872-1.872 4.905 0 6.777s4.905 1.872 6.777 0c4.638-4.643 12.207-4.652 16.854 0 1.873 1.872 4.906 1.872 6.778 0z"/><path d="m195.293 237.895c-11.336 11.331-29.768 11.331-41.103 0-1.872-1.872-4.905-1.872-6.777 0s-1.872 4.905 0 6.777c15.071 15.071 39.587 15.071 54.658 0 1.872-1.872 1.872-4.905 0-6.777-1.873-1.872-4.906-1.872-6.778 0z"/><path d="m502.159 319.444c0 12.605-8.866 23.101-20.657 25.737v37.815c0 31.728-25.833 57.561-57.561 57.561-31.776 0-57.609-25.833-57.609-57.561v-69.112c-21.424-2.396-38.15-20.609-38.15-42.655v-29.14c0-2.636 2.157-4.793 4.793-4.793h18.021c2.636 0 4.793 2.157 4.793 4.793s-2.157 4.793-4.793 4.793h-13.228v24.347c0 18.356 14.953 33.357 33.358 33.357 18.404 0 33.357-15.001 33.357-33.357v-24.347h-13.899c-2.636 0-4.793-2.157-4.793-4.793s2.156-4.793 4.793-4.793h18.692c2.636 0 4.793 2.157 4.793 4.793v29.14c0 22.047-16.727 40.259-38.15 42.655v69.112c0 26.456 21.519 47.975 48.023 47.975 26.456 0 47.976-21.519 47.976-47.975v-37.479c-12.701-1.917-22.526-12.845-22.526-26.073 0-14.522 11.838-26.36 26.408-26.36 14.521 0 26.359 11.838 26.359 26.36z"/></g></g><g id="Layer_1"/></svg>