<svg id="Layer_1" enable-background="new 0 0 70 70" height="512" viewBox="0 0 70 70" width="512" xmlns="http://www.w3.org/2000/svg"><g><path d="m63.325 37.59c-5.06-5.06-13.3-5.06-18.35 0-2.93 2.93-4.21 7.05-3.65 11-2.58-2.45-6.03-3.88-9.7-3.88h-1.37v-2.96h6.78c3.44 0 6.23-2.79 6.23-6.22v-14.3c0-10.5-8.48-18.98-18.98-18.98-10.46 0-18.98 8.51-18.98 18.98v14.3c0 3.43 2.8 6.22 6.23 6.22h6.78v2.96h-1.36c-7.76 0-14.08 6.32-14.08 14.08v8.21c0 .41.33.75.75.75h41.32c.42 0 .75-.34.75-.75 0-.1 0-8.24 0-8.24v-.08l2.42-.44c5.01 2.64 11.23 1.67 15.21-2.3 2.53-2.53 3.8-5.86 3.8-9.18 0-3.33-1.27-6.65-3.8-9.17zm-51.79 2.66c-2.61 0-4.73-2.12-4.73-4.72v-14.3c0-9.64 7.84-17.48 17.48-17.48 9.67 0 17.48 7.81 17.48 17.48v14.3c0 2.6-2.12 4.72-4.73 4.72h-6.78v-.01c3.66-1.96 6.33-5.64 6.97-9.98 2.23-.29 3.96-2.18 3.96-4.49 0-2.25-1.64-4.12-3.79-4.48v-2.65c0-.39-.15-.78-.42-1.07l-3.26-3.55c-.25-.26-.72-.31-1.02-.12-3.97 2.61-10.79 5.54-20.7 4.73-.21-.02-.42.05-.57.19-.16.14-.25.34-.25.55v1.92c-2.14.36-3.79 2.23-3.79 4.48 0 2.29 1.7 4.17 3.9 4.49.53 4.4 3.22 8.05 6.9 9.99zm25.85-11.52v-.43c0-.02.01-.04.01-.06v-5.43c1.31.34 2.29 1.54 2.29 2.96 0 1.43-.98 2.62-2.3 2.96zm-26.2-.03v.03c-1.32-.34-2.3-1.53-2.3-2.96 0-1.42.98-2.62 2.29-2.96v5.85c0 .01.01.03.01.04zm1.5 0c0-.1-.01-8.18-.01-8.52 9.52.6 16.23-2.13 20.34-4.7l2.85 3.11c.02.01.03.03.03.05v3.31l-.01.01v6.34c-.03 6.57-5.31 12.06-11.81 11.93-6.25-.11-11.37-5.15-11.39-11.53zm-1.67 37.55h-6.64v-2.76h6.64zm12.3-11.84h-1.61c-.41 0-.75.33-.75.75 0 .41.34.75.75.75h1.61v2.72h-1.61c-.41 0-.75.34-.75.75 0 .42.34.75.75.75h1.61v2.73h-1.61c-.41 0-.75.33-.75.75 0 .41.34.75.75.75h1.61v1.89h-10.8c0-.21 0-6.27 0-6.27-.01-.41-.34-.74-.75-.74-.42 0-.75.34-.75.75v2h-6.64v-3.2c0-6.94 5.64-12.58 12.58-12.58h1.76c.08.1 4.33 5.21 4.6 5.55zm-3.5-9.23v-4.21c2.73.98 5.95 1.08 8.94 0v4.2l-4.67 5.16c-.08-.09-4.02-4.84-4.27-5.15zm24.38 21.07h-6.64v-2.76h6.64zm0-4.26h-6.64v-2c0-.41-.33-.75-.75-.75-.41 0-.75.34-.75.75v6.26h-11.24v-14.48l5.02-5.56h1.79c4.81 0 9.04 2.76 11.03 6.56l-1.15 4.96c-.09.4.02.81.3 1.1s.68.42 1.08.35l1.31-.23zm18.07-7.11c-3.6 3.59-9.22 4.38-13.66 1.92-.15-.08-.33-.11-.5-.08l-5.04.9 1.11-4.79c.04-.18.02-.37-.07-.53-2.46-4.44-1.66-10.06 1.93-13.65 4.47-4.47 11.75-4.47 16.23 0 4.47 4.47 4.47 11.75 0 16.23z"/><path d="m41.765 21.23v14.3c0 2.6-2.12 4.72-4.73 4.72h-6.78v-.01c3.66-1.96 6.33-5.64 6.97-9.98 2.23-.29 3.96-2.18 3.96-4.49 0-2.25-1.64-4.12-3.79-4.48v-2.65c0-.39-.15-.78-.42-1.07l-3.26-3.55c-.25-.26-.72-.31-1.02-.12-3.97 2.61-10.79 5.54-20.7 4.73-.21-.02-.42.05-.57.19-.16.14-.25.34-.25.55v1.92c-2.14.36-3.79 2.23-3.79 4.48 0 2.29 1.7 4.17 3.9 4.49.53 4.4 3.22 8.05 6.9 9.99h-6.65c-2.61 0-4.73-2.12-4.73-4.72v-14.3c0-9.64 7.84-17.48 17.48-17.48 9.67 0 17.48 7.81 17.48 17.48z"/><circle cx="30.045" cy="25.77" r="1.75"/><circle cx="18.525" cy="25.77" r="1.75"/><path d="m24.286 30.024c.414 0 .75-.336.75-.75v-1.284c0-.414-.336-.75-.75-.75s-.75.336-.75.75v1.285c0 .413.336.749.75.749z"/><path d="m27.083 33.846c-.213 1.387-1.387 2.394-2.798 2.394-1.38 0-2.592-1.029-2.798-2.394-.038-.259.03-.518.198-.709.16-.191.396-.297.648-.297h3.903c.252 0 .488.107.648.297.169.191.245.45.199.709z"/><path d="m59.555 48.47-4.07 4.07c-.35.35-.82.55-1.33.55-.5 0-.97-.2-1.33-.55l-4.08-4.09c-1.75-1.75-1.5-4.58.04-5.91 1.47-1.44 3.76-1.57 5.38-.41 1.27-.91 2.95-1.07 4.31-.36 2.63 1.39 3.04 4.75 1.08 6.7z"/></g></svg>